<?xml version="1.0" encoding="utf-8"?>
<!-- Generator: Adobe Illustrator 24.2.1, SVG Export Plug-In . SVG Version: 6.00 Build 0)  -->
<svg version="1.1" id="Calque_1" xmlns="http://www.w3.org/2000/svg" xmlns:xlink="http://www.w3.org/1999/xlink" x="0px" y="0px"
	 viewBox="0 0 56.69 56.69" style="enable-background:new 0 0 56.69 56.69;" xml:space="preserve">
<style type="text/css">
	.st0{fill:#FFFFFF;}
	.st1{font-family:'Noteworthy-Bold';}
	.st2{font-size:16.8267px;}
	.st3{opacity:0.3;fill:#FFFFFF;enable-background:new    ;}
</style>
<g>
	<g>
		<path d="M12.47,44.84c0.04-1.64-1.63-3.57-3.27-3.8c-1.81-0.25-2.27-1.07-1.57-2.77c0.55-1.33-0.33-3.85-1.6-4.55
			c-1.89-1.05-2.03-1.78-0.6-3.34c0.82-0.9,0.81-3.66-0.02-4.65C3.9,23.92,4,23.4,6.09,22.25c0.93-0.52,1.82-3.12,1.44-4.24
			c-0.81-2.36-0.6-2.7,1.86-3.11c1.03-0.17,2.74-2.37,2.75-3.54c0.02-2.36,0.43-2.7,2.74-2.26c1.13,0.22,3.44-1.22,3.85-2.4
			c0.74-2.11,1.43-2.36,3.29-1.17c0.88,0.56,3.65,0.1,4.39-0.73c1.79-1.99,2.06-1.99,3.7-0.01c0.65,0.79,3.46,1.15,4.44,0.57
			c2.01-1.18,2.59-0.96,3.33,1.29c0.31,0.95,2.7,2.33,3.76,2.18c0.25-0.04,0.5-0.11,0.76-0.15c1.54-0.25,2.19,0.32,2.14,1.86
			c-0.06,1.8,1.54,3.71,3.35,4c1.73,0.27,2.17,1.07,1.51,2.7c-0.58,1.44,0.29,3.84,1.69,4.64c1.79,1.02,1.93,1.82,0.54,3.29
			c-0.87,0.93-0.89,3.59-0.04,4.63c1.54,1.88,1.45,2.38-0.61,3.5c-1.01,0.55-1.89,3.13-1.47,4.31c0.79,2.23,0.51,2.69-1.83,3.07
			c-1.13,0.18-2.82,2.34-2.8,3.59c0.02,2.25-0.54,2.71-2.69,2.2c-1.07-0.25-3.51,1.19-3.91,2.32c-0.79,2.23-1.37,2.44-3.33,1.21
			c-0.95-0.6-3.67-0.05-4.47,0.9c-1.49,1.78-2.1,1.79-3.48,0.02c-0.71-0.9-3.45-1.38-4.5-0.79c-2.11,1.21-2.61,1.03-3.34-1.18
			c-0.41-1.22-2.82-2.43-4.24-2.13C13.12,47.24,12.42,46.68,12.47,44.84z M10.86,32.38c1.43,8.32,10.54,14.73,19.43,13.81
			c9.62-0.99,16.8-9.08,16.66-18.77C46.8,17.05,38.33,10.59,32.49,9.93c10.32,3.8,13.11,12.6,12.29,19.15
			c-0.87,7-6.57,13.28-13.53,14.71c-3.68,0.76-7.28,0.49-10.72-1.05C15.87,40.64,12.7,37.12,10.86,32.38z"/>
		<path class="st0" d="M10.86,32.38c1.84,4.74,5.01,8.27,9.66,10.35c3.44,1.54,7.04,1.81,10.72,1.05
			c6.96-1.44,12.65-7.71,13.53-14.71c0.82-6.54-1.97-15.34-12.29-19.15c5.84,0.66,14.31,7.13,14.46,17.49
			c0.14,9.69-7.04,17.78-16.66,18.77C21.39,47.1,12.29,40.69,10.86,32.38z"/>
	</g>
	<text transform="matrix(0.7534 0 0 1 10.627 29.1548)" class="st0 st1 st2">EBC</text>
</g>
<g>
	<circle class="st3" cx="23.88" cy="32.47" r="7.88"/>
	<circle class="st3" cx="31.92" cy="32.47" r="7.88"/>
	<circle class="st3" cx="27.68" cy="25.73" r="7.88"/>
</g>
</svg>
