<?xml version="1.0" encoding="utf-8"?>
<!-- Generator: Adobe Illustrator 24.2.1, SVG Export Plug-In . SVG Version: 6.00 Build 0)  -->
<svg version="1.1" id="Calque_1" xmlns="http://www.w3.org/2000/svg" xmlns:xlink="http://www.w3.org/1999/xlink" x="0px" y="0px"
	 viewBox="0 0 56.69 56.69" style="enable-background:new 0 0 56.69 56.69;" xml:space="preserve">
<style type="text/css">
	.st0{fill:#FFFFFF;}
	.st1{opacity:0.4;}
	.st2{enable-background:new    ;}
</style>
<g>
	<path d="M12.47,44.84c0.04-1.64-1.63-3.57-3.27-3.8c-1.81-0.25-2.27-1.07-1.57-2.77c0.55-1.33-0.33-3.85-1.6-4.55
		c-1.89-1.05-2.03-1.78-0.6-3.34c0.82-0.9,0.81-3.66-0.02-4.65C3.9,23.92,4,23.4,6.09,22.25c0.93-0.52,1.82-3.12,1.44-4.24
		c-0.81-2.36-0.6-2.7,1.86-3.11c1.03-0.17,2.74-2.37,2.75-3.54c0.02-2.36,0.43-2.7,2.74-2.26c1.13,0.22,3.44-1.22,3.85-2.4
		c0.74-2.11,1.43-2.36,3.29-1.17c0.88,0.56,3.65,0.1,4.39-0.73c1.79-1.99,2.06-1.99,3.7-0.01c0.65,0.79,3.46,1.15,4.44,0.57
		c2.01-1.18,2.59-0.96,3.33,1.29c0.31,0.95,2.7,2.33,3.76,2.18c0.25-0.04,0.5-0.11,0.76-0.15c1.54-0.25,2.19,0.32,2.14,1.86
		c-0.06,1.8,1.54,3.71,3.35,4c1.73,0.27,2.17,1.07,1.51,2.7c-0.58,1.44,0.29,3.84,1.69,4.64c1.79,1.02,1.93,1.82,0.54,3.29
		c-0.87,0.93-0.89,3.59-0.04,4.63c1.54,1.88,1.45,2.38-0.61,3.5c-1.01,0.55-1.89,3.13-1.47,4.31c0.79,2.23,0.51,2.69-1.83,3.07
		c-1.13,0.18-2.82,2.34-2.8,3.59c0.02,2.25-0.54,2.71-2.69,2.2c-1.07-0.25-3.51,1.19-3.91,2.32c-0.79,2.23-1.37,2.44-3.33,1.21
		c-0.95-0.6-3.67-0.05-4.47,0.9c-1.49,1.78-2.1,1.79-3.48,0.02c-0.71-0.9-3.45-1.38-4.5-0.79c-2.11,1.21-2.61,1.03-3.34-1.18
		c-0.41-1.22-2.82-2.43-4.24-2.13C13.12,47.24,12.42,46.68,12.47,44.84z M10.86,32.38c1.43,8.32,10.54,14.73,19.43,13.81
		c9.62-0.99,16.8-9.08,16.66-18.77C46.8,17.05,38.33,10.59,32.49,9.93c10.32,3.8,13.11,12.6,12.29,19.15
		c-0.87,7-6.57,13.28-13.53,14.71c-3.68,0.76-7.28,0.49-10.72-1.05C15.87,40.64,12.7,37.12,10.86,32.38z"/>
	<path class="st0" d="M10.86,32.38c1.84,4.74,5.01,8.27,9.66,10.35c3.44,1.54,7.04,1.81,10.72,1.05
		c6.96-1.44,12.65-7.71,13.53-14.71c0.82-6.54-1.97-15.34-12.29-19.15c5.84,0.66,14.31,7.13,14.46,17.49
		c0.14,9.69-7.04,17.78-16.66,18.77C21.39,47.1,12.29,40.69,10.86,32.38z"/>
</g>
<g class="st1">
	<path class="st0" d="M17.05,29.15c-0.11-0.28-0.22-0.55-0.35-0.83c-0.03-0.06-0.12-0.13-0.18-0.13c-0.56-0.01-0.93-0.31-1.19-0.76
		c-0.24-0.42-0.45-0.86-0.67-1.29c-0.21-0.4-0.41-0.81-0.63-1.24c0.44,0.1,0.78,0.34,1.09,0.61c0.31,0.27,0.61,0.56,0.97,0.89
		c-0.98-1.43-1.28-2.94-0.79-4.57c0.06,0.25,0.11,0.51,0.2,0.74c0.24,0.59,0.49,1.18,0.75,1.77c0.22,0.5,0.24,1.01,0.2,1.54
		c-0.01,0.18,0.02,0.37,0.07,0.56c0.04-1.24,0.39-2.3,1.45-2.99c-0.09,0.8-0.19,1.6-0.27,2.39c-0.06,0.63-0.31,1.09-0.95,1.34
		c0.15,0.4,0.3,0.8,0.45,1.19c0.06-1.03,0.31-1.97,1.21-2.67c-0.04,0.37-0.09,0.68-0.09,0.99c0,0.51,0.03,1.03,0.05,1.54
		c0.01,0.46-0.14,0.85-0.52,1.15c-0.06,0.04-0.12,0.16-0.1,0.2c0.12,0.27,0.25,0.53,0.41,0.84c0.22-1.7,0.35-2.06,0.85-2.46
		c0.08,0.62,0.15,1.26,0.23,1.89c0.03,0.22,0.08,0.44,0.1,0.66c0.04,0.46-0.15,0.83-0.48,1.15c0.17,0.27,0.33,0.53,0.54,0.87
		c-0.1-0.97-0.08-1.83,0.52-2.52c0.22,0.83,0.45,1.66,0.65,2.5c0.1,0.43-0.03,0.83-0.34,1.18c0.2,0.25,0.4,0.5,0.6,0.75
		c-0.19-0.9-0.23-1.75,0.26-2.52c0.28,0.7,0.55,1.41,0.84,2.11c0.21,0.52,0.26,1.01-0.11,1.51c0.24,0.23,0.47,0.46,0.7,0.68
		c-0.09-0.42-0.21-0.85-0.27-1.28c-0.06-0.45,0.03-0.89,0.28-1.35c0.05,0.15,0.07,0.26,0.12,0.35c0.25,0.48,0.49,0.97,0.75,1.44
		c0.2,0.37,0.46,0.73,0.42,1.19c-0.01,0.1,0,0.21-0.05,0.28c-0.16,0.28-0.03,0.42,0.2,0.59c2.22,1.62,4.69,2.6,7.42,2.87
		c0.73,0.07,1.47,0.11,2.21,0.1c0.73-0.01,1.45-0.08,2.21-0.13c0.02,0.12,0.04,0.26,0.07,0.41c-4.23,0.53-8.16-0.17-11.73-2.6
		c-0.61,0.61-1.26,0.46-1.92,0.12c-0.7-0.36-1.39-0.72-2.09-1.08c0.51-0.31,1.44-0.24,3.03,0.25c-0.36-0.31-0.66-0.57-0.99-0.86
		c-0.63,0.5-1.24,0.3-1.82-0.09c-0.67-0.45-1.34-0.91-2.06-1.4c1.1-0.2,2.04,0.18,3.02,0.64c-0.31-0.35-0.57-0.64-0.85-0.96
		c-0.73,0.45-1.33,0.11-1.88-0.37c-0.59-0.51-1.17-1.03-1.76-1.56c0.65-0.15,1.45,0.12,2.85,0.91c-0.21-0.31-0.42-0.62-0.65-0.92
		c-0.02-0.03-0.12-0.04-0.18-0.02c-0.57,0.2-1.04,0.02-1.43-0.39c-0.43-0.45-0.83-0.93-1.24-1.39c-0.19-0.21-0.39-0.42-0.6-0.64
		c0.53-0.12,1.24,0.21,2.7,1.21c-0.18-0.32-0.35-0.65-0.54-0.97c-0.02-0.04-0.12-0.05-0.18-0.04c-0.54,0.13-0.95-0.1-1.28-0.5
		c-0.27-0.33-0.5-0.69-0.75-1.04c-0.3-0.43-0.59-0.86-0.88-1.3C15.15,27.65,15.99,28.17,17.05,29.15z"/>
	<path class="st0" d="M35.24,29.68c0.6,0.7,0.63,1.55,0.57,2.46c0.15-0.24,0.3-0.48,0.44-0.72c0.02-0.04,0-0.14-0.04-0.17
		c-0.41-0.41-0.43-0.91-0.35-1.44c0.11-0.72,0.2-1.45,0.3-2.18c0.69,0.64,0.82,1.5,0.85,2.43c0.14-0.29,0.29-0.58,0.45-0.9
		c-0.47-0.29-0.69-0.72-0.67-1.27c0-0.11,0-0.21,0-0.32c0-0.71,0-1.43,0-2.17c0.85,0.66,1.11,1.58,1.17,2.63
		c0.15-0.39,0.3-0.78,0.46-1.2c-0.69-0.24-0.91-0.78-0.97-1.43c-0.07-0.77-0.17-1.53-0.25-2.26c0.76,0.27,1.27,1.28,1.48,2.95
		c0.02-0.18,0.05-0.36,0.06-0.54c0.02-0.39-0.05-0.82,0.07-1.18c0.34-0.97,0.76-1.92,1.14-2.85c0.4,1.59,0.14,3.11-0.86,4.52
		c0.35-0.31,0.64-0.61,0.96-0.86c0.32-0.24,0.67-0.44,1-0.65c0.02,0.03,0.04,0.05,0.06,0.08c-0.22,0.44-0.43,0.87-0.65,1.31
		c-0.22,0.42-0.42,0.85-0.67,1.26c-0.25,0.42-0.61,0.7-1.14,0.69c-0.06,0-0.14,0.03-0.16,0.08c-0.13,0.29-0.25,0.58-0.35,0.88
		c0.7-0.65,1.39-1.29,2.43-1.49c-0.58,0.83-1.11,1.64-1.69,2.4c-0.39,0.51-0.78,0.6-1.42,0.48c-0.2,0.35-0.39,0.71-0.64,1.15
		c0.86-0.7,1.68-1.3,2.81-1.39c-0.39,0.44-0.74,0.84-1.09,1.23c-0.26,0.29-0.51,0.58-0.79,0.86c-0.4,0.39-0.86,0.59-1.43,0.39
		c-0.06-0.02-0.17,0.01-0.21,0.06c-0.22,0.29-0.42,0.6-0.68,0.98c0.93-0.61,1.83-1.08,2.93-0.99c-0.74,0.62-1.45,1.27-2.21,1.86
		c-0.48,0.37-0.83,0.34-1.44,0.06c-0.25,0.29-0.51,0.58-0.77,0.87c0.93-0.4,1.86-0.73,2.94-0.56c-0.67,0.46-1.28,0.89-1.91,1.31
		c-0.2,0.13-0.41,0.26-0.63,0.35c-0.49,0.21-0.79,0.18-1.35-0.15c-0.3,0.26-0.6,0.52-0.91,0.78c0.98-0.3,1.95-0.53,2.97-0.23
		c-0.01,0.04-0.01,0.06-0.03,0.07c-0.69,0.35-1.38,0.71-2.07,1.06c-0.37,0.18-0.76,0.37-1.19,0.27c-0.18-0.04-0.38-0.11-0.52-0.23
		c-0.17-0.16-0.28-0.1-0.45-0.01c-0.79,0.45-1.6,0.87-2.39,1.31c-0.33,0.18-0.62,0.16-0.96-0.08c1.48-0.57,2.84-1.31,4.09-2.3
		c-0.38-0.69-0.06-1.27,0.29-1.87c0.31-0.53,0.58-1.09,0.88-1.65c0.43,0.84,0.25,1.7-0.12,2.63c0.18-0.17,0.3-0.28,0.42-0.39
		c0.12-0.11,0.25-0.21,0.39-0.33c-0.47-0.61-0.3-1.17-0.06-1.75c0.27-0.63,0.5-1.27,0.75-1.89c0.35,0.27,0.55,1.35,0.22,2.54
		c0.14-0.17,0.25-0.28,0.35-0.41c0.1-0.12,0.19-0.24,0.3-0.39c-0.53-0.56-0.36-1.18-0.18-1.83C34.94,30.93,35.08,30.31,35.24,29.68z
		"/>
	<path class="st0" d="M32.76,26.82c-0.09-0.09-0.17-0.17-0.24-0.26c-0.37-0.42-0.82-0.7-1.37-0.82c-0.67-0.14-0.98-0.54-1-1.22
		c-0.01-0.32-0.06-0.64-0.09-0.99c0.23,0.02,0.47,0.05,0.77,0.08c-0.27-0.35-0.5-0.65-0.75-0.97c0.87-0.13,1.81,0.3,2.22,1.01
		c0.55,0.95,0.71,1.97,0.52,3.06C32.81,26.73,32.79,26.76,32.76,26.82z"/>
	<path class="st0" d="M21.47,26.8c-0.26-1.18-0.05-2.24,0.53-3.26c0.36-0.63,0.94-0.75,1.55-0.86c0.19-0.04,0.38-0.05,0.67-0.09
		c-0.29,0.37-0.52,0.67-0.81,1.03c0.29-0.03,0.52-0.06,0.76-0.09c-0.03,0.47-0.03,0.94-0.11,1.39c-0.06,0.35-0.31,0.63-0.65,0.72
		C22.65,25.83,21.97,26.14,21.47,26.8z"/>
	<path class="st0" d="M31.96,30.21c-0.22-0.33-0.39-0.6-0.58-0.86c-0.21-0.29-0.4-0.61-0.66-0.84c-0.62-0.55-0.78-1.29-0.98-2.03
		c-0.02-0.06-0.01-0.14,0.01-0.2c0.1-0.28,0.21-0.56,0.33-0.88c0.32,0.46,0.82,0.58,1.31,0.71c0.08,0.02,0.16,0.07,0.24,0.11
		c0.5,0.24,0.79,0.6,0.78,1.2c-0.01,0.76,0.02,1.51-0.23,2.24C32.13,29.82,32.06,29.97,31.96,30.21z"/>
	<path class="st0" d="M24.14,25.4c0.12,0.32,0.24,0.6,0.34,0.89c0.02,0.07,0.02,0.16,0,0.23c-0.14,0.44-0.27,0.89-0.45,1.32
		c-0.08,0.19-0.24,0.34-0.37,0.51c-0.31,0.41-0.62,0.81-0.93,1.22c-0.14,0.19-0.29,0.38-0.52,0.58c-0.1-0.34-0.27-0.68-0.29-1.03
		c-0.06-0.73-0.04-1.47-0.04-2.2c0-0.08,0.07-0.19,0.14-0.24c0.3-0.21,0.59-0.46,0.92-0.58C23.39,25.93,23.85,25.83,24.14,25.4z"/>
	<path class="st0" d="M27.13,29.04c-0.6-0.69-1.29-1.21-1.55-2.08c-0.1-0.32-0.02-0.55,0.24-0.69c0.52-0.27,0.94-0.65,1.29-1.15
		c0.08,0.09,0.12,0.18,0.19,0.24c0.32,0.28,0.62,0.58,0.97,0.81c0.41,0.27,0.51,0.44,0.33,0.9c-0.09,0.23-0.19,0.48-0.34,0.67
		C27.92,28.17,27.54,28.58,27.13,29.04z"/>
	<path class="st0" d="M26.31,22.45c0.13,0.51,0.26,1.01,0.4,1.5c0.03,0.11,0.06,0.24,0.13,0.32c0.27,0.34,0.16,0.63-0.11,0.88
		c-0.29,0.27-0.59,0.52-0.89,0.77c-0.29,0.24-0.58,0.48-0.86,0.71c-0.47-0.87-0.76-1.8-0.55-2.83c0.05-0.26,0.15-0.41,0.41-0.52
		c0.43-0.18,0.83-0.45,1.24-0.68C26.17,22.57,26.25,22.5,26.31,22.45z"/>
	<path class="st0" d="M27.92,22.55c0.54,0.27,1.12,0.55,1.69,0.85c0.07,0.04,0.12,0.15,0.14,0.23c0.18,0.8,0.19,1.59-0.19,2.34
		c-0.11,0.22-0.19,0.46-0.27,0.66c-0.44-0.33-0.88-0.64-1.31-0.98c-0.15-0.12-0.28-0.27-0.41-0.41c-0.27-0.3-0.4-0.57-0.17-1.01
		C27.66,23.69,27.76,23.07,27.92,22.55z"/>
	<path class="st0" d="M27.11,32.32c-0.64-0.42-1.14-0.95-1.42-1.69c-0.08-0.21-0.06-0.35,0.06-0.53c0.28-0.4,0.53-0.82,0.8-1.24
		c0.08,0.08,0.23,0.21,0.37,0.35c0.14,0.15,0.26,0.14,0.39,0c0.13-0.14,0.26-0.29,0.34-0.39c0.3,0.48,0.59,0.91,0.86,1.37
		c0.06,0.1,0.08,0.26,0.04,0.37C28.3,31.31,27.8,31.89,27.11,32.32z"/>
	<path class="st0" d="M24.14,23.22c0.64-1.17,1.39-2.18,2.69-2.62c0.17-0.06,0.39-0.07,0.55-0.01c0.87,0.36,1.66,0.84,2.13,1.71
		c0.17,0.31,0.4,0.59,0.63,0.93c-1.38-0.31-2.35-1.07-3.02-2.27C26.44,22.15,25.48,22.94,24.14,23.22z"/>
	<path class="st0" d="M29.04,26.96c0.07,0.09,0.16,0.21,0.27,0.36c0.07-0.15,0.14-0.29,0.22-0.46c0.12,0.33,0.2,0.63,0.34,0.91
		c0.14,0.27,0.33,0.51,0.5,0.77c0.04,0.06,0.09,0.14,0.08,0.2c-0.09,0.54-0.52,1.66-1.22,2.06c-0.37-0.62-0.76-1.24-1.12-1.87
		c-0.14-0.24-0.05-0.46,0.14-0.7C28.55,27.84,28.77,27.4,29.04,26.96z"/>
	<path class="st0" d="M24.94,30.81c-0.18-0.21-0.39-0.39-0.53-0.61c-0.18-0.29-0.33-0.61-0.47-0.93c-0.16-0.35-0.19-0.64,0.12-0.98
		c0.26-0.29,0.36-0.74,0.53-1.11c0.04-0.09,0.06-0.19,0.11-0.35c0.09,0.2,0.14,0.33,0.21,0.49c0.11-0.14,0.21-0.27,0.34-0.44
		c0.18,0.62,0.47,1.11,0.88,1.53c0.04,0.04,0.06,0.15,0.04,0.21c-0.05,0.22-0.07,0.47-0.19,0.66
		C25.68,29.79,25.32,30.27,24.94,30.81z"/>
	<path class="st0" d="M25.53,33.92c-0.48-0.35-0.73-0.82-0.99-1.32c-0.3-0.58,0.04-1.06,0.15-1.62c0.13,0.07,0.24,0.13,0.38,0.21
		c0.11-0.16,0.21-0.32,0.33-0.5c0.14,0.26,0.26,0.5,0.39,0.73c0.07,0.13,0.14,0.27,0.26,0.35c0.4,0.29,0.31,0.62,0.12,0.98
		C25.96,33.12,25.76,33.5,25.53,33.92z"/>
	<path class="st0" d="M28.69,33.94c-0.26-0.53-0.51-1.03-0.75-1.53c-0.08-0.17-0.05-0.29,0.09-0.46c0.31-0.38,0.56-0.8,0.84-1.21
		c0.08,0.13,0.19,0.29,0.3,0.45c0.12-0.07,0.23-0.14,0.35-0.21c0.11,0.33,0.22,0.65,0.32,0.96c0.01,0.04,0.01,0.1,0,0.14
		C29.66,32.81,29.34,33.45,28.69,33.94z"/>
	<path class="st0" d="M26.86,39.85c-2.64,0.93-5.3,1.07-8.03,0.74c0-0.09,0-0.15,0-0.21c0-0.07,0.02-0.13,0.03-0.21
		c0.51,0.04,1.01,0.08,1.51,0.11c1.89,0.13,3.76-0.06,5.58-0.59C26.28,39.59,26.55,39.65,26.86,39.85z"/>
	<path class="st0" d="M22.3,22.67c0.52-1.29,2.5-2.4,4.17-2.25c-0.12,0.07-0.19,0.12-0.27,0.16c-0.65,0.37-1.27,0.78-1.65,1.47
		c-0.06,0.11-0.24,0.2-0.38,0.23C23.54,22.43,22.91,22.55,22.3,22.67z"/>
	<path class="st0" d="M27.82,20.45c1.81-0.04,3.21,0.68,4.18,2.26c-0.06,0-0.09,0.01-0.13,0c-0.55-0.13-1.11-0.27-1.66-0.39
		c-0.27-0.06-0.48-0.15-0.62-0.41c-0.29-0.54-0.79-0.87-1.29-1.18C28.14,20.63,27.98,20.54,27.82,20.45z"/>
	<path class="st0" d="M23.8,32.4c-0.69-0.74-0.97-1.6-0.85-2.55c0.04-0.32,0.33-0.61,0.54-0.97c0.16,0.39,0.27,0.7,0.4,1
		c0.06,0.13,0.12,0.28,0.22,0.38c0.59,0.58,0.18,1.13-0.05,1.69C24,32.08,23.9,32.22,23.8,32.4z"/>
	<path class="st0" d="M30.36,32.41c-0.19-0.52-0.37-0.99-0.53-1.48c-0.03-0.09-0.02-0.22,0.02-0.3c0.3-0.55,0.61-1.08,0.92-1.62
		C31.62,29.59,31.46,31.55,30.36,32.41z"/>
	<path class="st0" d="M26.66,32.3c0.16,0.17,0.3,0.33,0.46,0.5c0.14-0.15,0.3-0.32,0.46-0.49c0.18,0.4,0.35,0.75,0.51,1.11
		c0.03,0.06,0.02,0.17-0.01,0.21c-0.26,0.29-0.52,0.57-0.8,0.84c-0.06,0.05-0.26,0.05-0.31-0.01c-0.27-0.26-0.53-0.53-0.77-0.82
		c-0.05-0.06-0.03-0.2,0-0.28C26.32,33.02,26.48,32.69,26.66,32.3z"/>
	<path class="st0" d="M27.28,20.15c-0.11,0.02-0.2,0.04-0.29,0.06c-0.53-1.03,0.51-3.39,1.88-4.27c0.12,0.19,0.25,0.38,0.39,0.6
		c-0.64,0.39-1.15,0.88-1.49,1.53C27.43,18.72,27.27,19.41,27.28,20.15z"/>
	<path class="st0" d="M27.12,21.53c0.16,0.2,0.31,0.38,0.45,0.56c0.03,0.04,0.07,0.11,0.06,0.15c-0.13,0.64-0.27,1.28-0.41,1.91
		c-0.04,0-0.08,0-0.12,0c-0.07-0.17-0.15-0.34-0.19-0.51c-0.1-0.44-0.19-0.89-0.28-1.33c-0.01-0.07,0.01-0.17,0.06-0.23
		C26.81,21.89,26.96,21.73,27.12,21.53z"/>
</g>
<g class="st2">
	<path class="st0" d="M14.63,15.68c0,0.08-0.06,0.24-0.18,0.49c-0.05,0.12-0.11,0.45-0.16,1.01c-0.28,3.34-0.42,6.27-0.42,8.79
		c0,0.66,0.05,1.19,0.16,1.59c0.09,0.34,0.28,0.81,0.57,1.41c0.01,0.03,0.02,0.07,0.02,0.13c0,0.31-0.32,0.47-0.97,0.47h-0.18
		c-0.67-0.01-1.08-0.62-1.23-1.83c-0.19-1.48-0.28-3.51-0.28-6.1c0-0.61,0.01-1.53,0.03-2.76c0.02-1.23,0.03-2.16,0.03-2.78
		c0-0.34,0.16-0.67,0.48-0.98s0.63-0.47,0.93-0.47c0.24,0,0.5,0.11,0.77,0.33C14.49,15.19,14.63,15.43,14.63,15.68z"/>
	<path class="st0" d="M25.62,25.45c0,0.49-0.11,0.95-0.32,1.36c-0.95,1.83-2.59,2.75-4.91,2.75c-0.61,0-1.31-0.1-2.1-0.29
		c-0.15,0.46-0.39,0.69-0.73,0.69c-0.63,0-0.95-0.3-0.95-0.89c0-0.03,0-0.08,0-0.16c0-0.07,0-0.13,0-0.16
		c0-0.13-0.02-0.22-0.06-0.25c-0.17-0.09-0.34-0.19-0.5-0.29c-0.16-0.1-0.24-0.29-0.24-0.56c0-0.46,0.2-0.72,0.59-0.78v-0.04
		c0-0.28,0-0.72,0-1.32c0-0.55,0-1,0-1.34v-0.16c-0.25-0.19-0.38-0.42-0.38-0.67c0-0.28,0.13-0.53,0.38-0.74v-6.84
		c0-0.24,0.12-0.48,0.35-0.73c0.23-0.25,0.45-0.37,0.66-0.37c0.29,0,0.49,0.04,0.59,0.13c0.13,0.16,0.26,0.33,0.4,0.49l-0.14,1.01
		c0.91-1.39,2.06-2.08,3.46-2.08c1.11,0,1.97,0.45,2.61,1.36c0.58,0.82,0.87,1.87,0.87,3.15c0,0.73-0.14,1.47-0.42,2.21
		c-0.28,0.79-0.65,1.42-1.11,1.88C24.97,23.3,25.62,24.17,25.62,25.45z M23.82,25.31c0-0.58-0.64-0.96-1.91-1.13
		c-0.53-0.06-1.39-0.09-2.6-0.09c-0.43,0-0.79,0.01-1.07,0.04c-0.01,0.39-0.02,0.74-0.02,1.07v1.38c0,0.31,0.01,0.58,0.02,0.8
		c0.64,0.3,1.35,0.44,2.13,0.44c0.71,0,1.43-0.22,2.17-0.67C23.39,26.65,23.82,26.03,23.82,25.31z M23.4,18.65
		c0-1.83-0.59-2.75-1.76-2.75c-0.84,0-1.63,0.63-2.36,1.9c-0.67,1.15-1.01,2.22-1.01,3.22v1.43h1.07c1.39,0,2.38-0.23,2.97-0.69
		C23.04,21.18,23.4,20.14,23.4,18.65z"/>
	<path class="st0" d="M35.5,21.4c0,1.24-0.13,2.55-0.4,3.93c-0.32,1.71-0.75,2.9-1.31,3.55c-0.69,0.82-1.53,1.23-2.53,1.23
		c-0.9,0-1.68-0.3-2.36-0.92c-0.74-0.69-1.25-1.62-1.52-2.79c-0.2-0.83-0.3-1.95-0.3-3.35c0-0.69,0.04-1.72,0.12-3.1
		c0.08-1.38,0.12-2.41,0.12-3.1c0-0.12-0.04-0.29-0.12-0.53c-0.08-0.23-0.12-0.41-0.12-0.53c0-0.37,0.26-0.68,0.79-0.92
		c0.41-0.19,0.81-0.29,1.21-0.29c0.45,0,0.67,0.16,0.67,0.47c0,0.16-0.07,0.4-0.2,0.72c-0.13,0.31-0.2,0.56-0.2,0.74
		c0,0.6-0.07,1.5-0.2,2.71c-0.13,1.21-0.2,2.12-0.2,2.73v2.77c0,0.85,0.15,1.6,0.44,2.26c0.36,0.83,0.88,1.25,1.56,1.25
		c1.32,0,2.2-1.37,2.63-4.11c0.2-1.28,0.3-3.27,0.3-5.97c0-0.98-0.13-1.78-0.4-2.39c-0.08-0.18-0.12-0.32-0.12-0.42
		c0-0.27,0.09-0.53,0.27-0.78c0.18-0.25,0.39-0.38,0.62-0.38c0.25,0,0.52,0.1,0.8,0.31c0.28,0.21,0.43,0.45,0.43,0.72V21.4z"/>
</g>
</svg>
