<?xml version="1.0" encoding="utf-8"?>
<!-- Generator: Adobe Illustrator 24.2.1, SVG Export Plug-In . SVG Version: 6.00 Build 0)  -->
<svg version="1.1" xmlns="http://www.w3.org/2000/svg" xmlns:xlink="http://www.w3.org/1999/xlink" x="0px" y="0px"
	 viewBox="0 0 56.69 56.69" style="enable-background:new 0 0 56.69 56.69;" xml:space="preserve">
<style type="text/css">
	.st0{display:none;}
	.st1{display:inline;opacity:0.1;}
	.st2{fill:#FFFFFF;}
	.st3{opacity:0.3;enable-background:new    ;}
	.st4{enable-background:new    ;}
	.st5{fill:url(#SVGID_1_);}
	.st6{opacity:0.35;fill:url(#SVGID_2_);}
	.st7{fill:none;stroke:#FFFFFF;stroke-width:2;stroke-linecap:round;stroke-miterlimit:10;}
</style>
<g id="Calque_1" class="st0">
	<g id="Calque_1_1_" class="st1">
		<g>
			<path d="M12.47,44.84c0.04-1.64-1.63-3.57-3.27-3.8c-1.81-0.25-2.27-1.07-1.57-2.77c0.55-1.33-0.33-3.85-1.6-4.55
				c-1.89-1.05-2.03-1.78-0.6-3.34c0.82-0.9,0.81-3.66-0.02-4.65C3.9,23.92,4,23.4,6.09,22.25c0.93-0.52,1.82-3.12,1.44-4.24
				c-0.81-2.36-0.6-2.7,1.86-3.11c1.03-0.17,2.74-2.37,2.75-3.54c0.02-2.36,0.43-2.7,2.74-2.26c1.13,0.22,3.44-1.22,3.85-2.4
				c0.74-2.11,1.43-2.36,3.29-1.17c0.88,0.56,3.65,0.1,4.39-0.73c1.79-1.99,2.06-1.99,3.7-0.01c0.65,0.79,3.46,1.15,4.44,0.57
				c2.01-1.18,2.59-0.96,3.33,1.29c0.31,0.95,2.7,2.33,3.76,2.18c0.25-0.04,0.5-0.11,0.76-0.15c1.54-0.25,2.19,0.32,2.14,1.86
				c-0.06,1.8,1.54,3.71,3.35,4c1.73,0.27,2.17,1.07,1.51,2.7c-0.58,1.44,0.29,3.84,1.69,4.64c1.79,1.02,1.93,1.82,0.54,3.29
				c-0.87,0.93-0.89,3.59-0.04,4.63c1.54,1.88,1.45,2.38-0.61,3.5c-1.01,0.55-1.89,3.13-1.47,4.31c0.79,2.23,0.51,2.69-1.83,3.07
				c-1.13,0.18-2.82,2.34-2.8,3.59c0.02,2.25-0.54,2.71-2.69,2.2c-1.07-0.25-3.51,1.19-3.91,2.32c-0.79,2.23-1.37,2.44-3.33,1.21
				c-0.95-0.6-3.67-0.05-4.47,0.9c-1.49,1.78-2.1,1.79-3.48,0.02c-0.71-0.9-3.45-1.38-4.5-0.79c-2.11,1.21-2.61,1.03-3.34-1.18
				c-0.41-1.22-2.82-2.43-4.24-2.13C13.12,47.24,12.42,46.68,12.47,44.84z"/>
		</g>
		<path class="st2" d="M10.86,32.38c1.84,4.74,5.01,8.27,9.66,10.35c3.44,1.54,7.04,1.81,10.72,1.05
			c6.96-1.44,12.65-7.71,13.53-14.71c0.82-6.54-1.97-15.34-12.29-19.15c5.84,0.66,14.31,7.13,14.46,17.49
			c0.14,9.69-7.04,17.78-16.66,18.77C21.39,47.1,12.29,40.69,10.86,32.38z"/>
		<g class="st3">
			<path class="st2" d="M31.96,28.97c0,0.08-0.03,0.14-0.11,0.22c-0.47,0.22-1.3,1.49-2.52,3.79c-0.98,1.86-1.69,3.35-2.14,4.46
				c-0.19,0.43-0.47,1.21-0.87,2.33c-0.47,1.29-0.7,2-0.7,2.13c0,0.06,0.05,0.12,0.14,0.2s0.14,0.14,0.14,0.2
				c0,0.2-0.11,0.3-0.31,0.3c-0.14,0-0.33-0.11-0.54-0.34c-0.02-0.48-0.02-0.71-0.02-0.7c0-0.75,0.54-2.34,1.61-4.8
				c0.73-1.68,1.46-3.37,2.21-5.05l-0.06-0.12c-0.45,0.22-1.16,0.5-2.17,0.84c-0.2,0.92-0.42,1.57-0.67,1.97
				c-0.4,0.62-0.99,0.93-1.77,0.93c-1.63,0-2.44-1.01-2.44-3.03c0-1.02,0.17-1.89,0.53-2.61c0.45-0.95,1.13-1.41,2.03-1.41
				c0.7,0,1.29,0.36,1.74,1.07c0.42,0.64,0.64,1.3,0.65,2.03l0.08,0.12c0.51-0.03,1.2-0.31,2-0.82c0.82-0.53,1.34-1.02,1.57-1.49
				c0.06-0.22,0.14-0.42,0.2-0.61c0.09-0.25,0.25-0.37,0.47-0.37c0.2,0,0.42,0.08,0.62,0.22C31.85,28.58,31.96,28.76,31.96,28.97z
				 M25.75,32.68v-0.23c-1.46-0.02-2.39-0.64-2.8-1.85c-0.23,0.75-0.36,1.21-0.36,1.41c0,1.79,0.51,2.67,1.52,2.67
				c0.39,0,0.73-0.17,1.02-0.53c0.25-0.31,0.42-0.67,0.51-1.07C25.74,32.97,25.77,32.85,25.75,32.68z M25.97,31.34
				c0-0.45-0.14-0.93-0.42-1.44c-0.31-0.56-0.67-0.85-1.07-0.85c-0.25,0-0.45,0.11-0.61,0.31c-0.14,0.22-0.22,0.47-0.22,0.75
				c0,0.5,0.2,0.89,0.61,1.16s0.87,0.42,1.37,0.42C25.86,31.72,25.97,31.59,25.97,31.34z M33.93,39.09c0,0.96-0.22,1.77-0.64,2.39
				c-0.5,0.73-1.23,1.09-2.14,1.09c-0.87,0-1.54-0.3-2-0.9c-0.42-0.56-0.64-1.29-0.64-2.19c0-0.79,0.17-1.61,0.51-2.5
				c0.42-1.1,0.95-1.66,1.6-1.66c0.16,0,0.42,0.08,0.78,0.23l0.19,0.51c0.06-0.08,0.17-0.12,0.31-0.12c0.65,0,1.18,0.37,1.55,1.13
				C33.78,37.69,33.93,38.36,33.93,39.09z M33.08,39.09c0-1.2-0.36-1.99-1.06-2.39c-0.19-0.06-0.36-0.14-0.54-0.22
				c-0.19-0.08-0.26-0.22-0.25-0.4H31c-0.42,0.22-0.81,0.71-1.16,1.49c-0.3,0.68-0.43,1.3-0.43,1.86c0,0.64,0.12,1.18,0.4,1.65
				c0.31,0.57,0.76,0.87,1.35,0.87c0.61,0,1.09-0.34,1.48-1.01C32.93,40.36,33.08,39.74,33.08,39.09z"/>
		</g>
		<g class="st4">
			<path class="st2" d="M19.3,25.97c0,0.72-0.23,1.08-0.68,1.1c0.05,0.34,0.17,0.8,0.35,1.39c-0.01,0.33-0.1,0.6-0.28,0.8
				c-0.18,0.21-0.39,0.31-0.63,0.31c-0.19,0-0.41-0.08-0.66-0.25c-0.14-0.39-0.2-0.85-0.2-1.39c0-0.13,0.01-0.33,0.02-0.58
				s0.02-0.44,0.02-0.56c0,0.1-0.17,0.16-0.52,0.16c-0.59,0-1.28,0.04-2.09,0.11c-1.15,0.09-1.78,0.22-1.88,0.38
				s-0.17,0.96-0.2,2.39c-0.14,0.28-0.31,0.42-0.52,0.42c-0.22,0-0.45-0.13-0.68-0.39S11,29.33,11,29.03c0-0.1,0.09-0.52,0.28-1.25
				c0.21-1.06,0.55-2.65,1.02-4.76c1.41-5.47,2.57-8.2,3.51-8.2c0.91,0,1.61,1.45,2.11,4.34c0.22,1.3,0.42,3.29,0.61,5.97
				c0.27,0.09,0.45,0.16,0.52,0.22C19.22,25.48,19.3,25.69,19.3,25.97z M17.1,25.12c-0.46-5.2-0.88-7.8-1.24-7.8
				c-0.29,0-0.81,1.22-1.54,3.67c-0.52,1.76-0.94,3.29-1.24,4.58c0.34-0.1,0.83-0.23,1.49-0.38C15.17,25.08,16.01,25.06,17.1,25.12z
				"/>
			<path class="st2" d="M28.28,25.77c0,0.49-0.08,0.95-0.25,1.36c-0.75,1.83-2.06,2.75-3.9,2.75c-0.48,0-1.04-0.1-1.67-0.29
				c-0.12,0.46-0.31,0.69-0.58,0.69c-0.5,0-0.75-0.3-0.75-0.89c0-0.03,0-0.08,0-0.16c0-0.07,0-0.13,0-0.16
				c0-0.13-0.02-0.22-0.05-0.25c-0.14-0.09-0.27-0.19-0.39-0.29c-0.13-0.1-0.19-0.29-0.19-0.56c0-0.46,0.16-0.72,0.47-0.78v-0.04
				c0-0.28,0-0.72,0-1.32c0-0.55,0-1,0-1.34v-0.16c-0.2-0.19-0.3-0.42-0.3-0.67c0-0.28,0.1-0.53,0.3-0.74v-6.84
				c0-0.24,0.09-0.48,0.28-0.73c0.18-0.25,0.36-0.37,0.53-0.37c0.23,0,0.39,0.04,0.47,0.13c0.1,0.16,0.21,0.33,0.31,0.49l-0.11,1.01
				c0.72-1.39,1.64-2.08,2.74-2.08c0.88,0,1.57,0.45,2.07,1.36c0.46,0.82,0.69,1.87,0.69,3.15c0,0.73-0.11,1.47-0.33,2.21
				c-0.22,0.79-0.51,1.42-0.88,1.88C27.77,23.61,28.28,24.49,28.28,25.77z M26.85,25.63c0-0.58-0.51-0.96-1.52-1.13
				c-0.42-0.06-1.11-0.09-2.07-0.09c-0.35,0-0.63,0.01-0.85,0.04c-0.01,0.39-0.02,0.74-0.02,1.07v1.38c0,0.31,0.01,0.58,0.02,0.8
				c0.51,0.3,1.08,0.44,1.69,0.44c0.56,0,1.14-0.22,1.72-0.67C26.51,26.97,26.85,26.35,26.85,25.63z M26.52,18.97
				c0-1.83-0.47-2.75-1.4-2.75c-0.67,0-1.29,0.63-1.87,1.9c-0.53,1.15-0.8,2.22-0.8,3.22v1.43h0.85c1.1,0,1.89-0.23,2.36-0.69
				C26.23,21.5,26.52,20.46,26.52,18.97z"/>
			<path class="st2" d="M36.9,15.84c0,1.22-0.14,2.86-0.41,4.92c-0.2,1.45-0.57,3.22-1.12,5.32c-0.72,2.74-1.35,4.11-1.87,4.11
				s-0.93-0.11-1.23-0.34c-0.64-0.49-1.2-2.41-1.67-5.77c-0.26-2.27-0.53-4.53-0.8-6.8c-0.02-0.16-0.07-0.39-0.14-0.69
				c-0.05-0.07-0.1-0.16-0.15-0.25s-0.07-0.2-0.07-0.34c0-0.3,0.13-0.57,0.39-0.8c0.23-0.22,0.46-0.34,0.69-0.34
				c0.26,0,0.5,0.14,0.71,0.41c0.21,0.28,0.31,0.6,0.31,0.97c0,0.27-0.01,0.68-0.04,1.23s-0.04,0.96-0.04,1.23
				c0,1.22,0.13,2.69,0.39,4.4c0.48,3.19,0.88,4.78,1.18,4.78c0.2,0,0.39-0.23,0.58-0.69c0.49-1.18,0.94-2.97,1.34-5.36
				c0.39-2.29,0.58-4.19,0.58-5.68c0-0.34-0.08-0.6-0.23-0.77c-0.15-0.17-0.23-0.27-0.23-0.3c0-0.16,0.13-0.38,0.39-0.65
				c0.26-0.27,0.46-0.4,0.58-0.4c0.22,0,0.41,0.21,0.58,0.64C36.82,15.12,36.9,15.5,36.9,15.84z"/>
		</g>
	</g>
	<g id="Calque_2_1_" class="st1">
	</g>
</g>
<g id="Calque_2">
	<radialGradient id="SVGID_1_" cx="28.6116" cy="27.5941" r="23.0117" gradientUnits="userSpaceOnUse">
		<stop  offset="0.8122" style="stop-color:#0D0D0D"/>
		<stop  offset="0.9172" style="stop-color:#090909"/>
		<stop  offset="1" style="stop-color:#000000"/>
	</radialGradient>
	<circle class="st5" cx="28.61" cy="27.59" r="23.01"/>
	<linearGradient id="SVGID_2_" gradientUnits="userSpaceOnUse" x1="28.6116" y1="47.7503" x2="28.6116" y2="7.4378">
		<stop  offset="0.6168" style="stop-color:#000000"/>
		<stop  offset="0.6759" style="stop-color:#2E2E2E"/>
		<stop  offset="0.7954" style="stop-color:#878787"/>
		<stop  offset="0.893" style="stop-color:#C8C8C8"/>
		<stop  offset="0.9635" style="stop-color:#F0F0F0"/>
		<stop  offset="1" style="stop-color:#FFFFFF"/>
	</linearGradient>
	<circle class="st6" cx="28.61" cy="27.59" r="20.16"/>
	<path class="st2" d="M19.14,20.77c0.29,0.63-0.7,3.6-3.41,4.84c-2.71,1.24-6.11,0.29-6.4-0.34c-0.29-0.63,2.92-0.09,5.63-1.33
		C17.67,22.69,18.85,20.14,19.14,20.77z"/>
	<path class="st2" d="M38.09,20.77c-0.29,0.63,0.7,3.6,3.41,4.84c2.71,1.24,6.11,0.29,6.4-0.34c0.29-0.63-2.92-0.09-5.63-1.33
		C39.55,22.69,38.38,20.14,38.09,20.77z"/>
	<g>
		<path class="st2" d="M26.14,31.59c0,1.06-3,4.5-6.71,4.5s-6.71-3.43-6.71-4.5c0-1.06,3,1.35,6.71,1.35S26.14,30.53,26.14,31.59z"
			/>
		<path class="st2" d="M44.49,31.59c0,1.06-3,4.5-6.71,4.5s-6.71-3.43-6.71-4.5c0-1.06,3,1.35,6.71,1.35S44.49,30.53,44.49,31.59z"
			/>
	</g>
	<line class="st7" x1="25.22" y1="42.42" x2="32" y2="42.42"/>
</g>
</svg>
